# xmcd
#
# Track frame offsets: 
#        179
#        13702
#        31793
#        54184
#        69714
#        83118
#        96242
#        112572
#        125125
#        148804
#        199646
#        231713
#        244119
#        262270
#        277916
#        294442
#
# Disc length: 4111 seconds
#
# Revision: 0
# Processed by: cddbd v1.5.2PL0 Copyright (c) Steve Scherf et al.
# Submitted via: ExactAudioCopyFreeDBPlugin 1.0
#
DISCID=e7100d10
DTITLE=Canned Heat - Boogie With Canned Heat
DYEAR=1968
DGENRE=Blues
TTITLE0=Evil Woman
TTITLE1=My Crime
TTITLE2=On The Road Again
TTITLE3=World In A Jug
TTITLE4=Turpentine Moan
TTITLE5=Whisky Headed Woman No 2
TTITLE6=Amphtamine Annie
TTITLE7=An Owl Song
TTITLE8=Marie Laveau
TTITLE9=Fried Hockey Boogie
TTITLE10=On The Road Again ALTERNATE TAKE
TTITLE11=Shake, Rattle And Roll
TTITLE12=Whisky And Wimmen'
TTITLE13=Mean Old World
TTITLE14=The Hunter
TTITLE15=Fannie Mae
EXTD=
EXTT0=
EXTT1=
EXTT2=
EXTT3=
EXTT4=
EXTT5=
EXTT6=
EXTT7=
EXTT8=
EXTT9=
EXTT10=
EXTT11=
EXTT12=
EXTT13=
EXTT14=
EXTT15=
PLAYORDER=
